<svg xmlns="http://www.w3.org/2000/svg" width="62" height="105" viewBox="0 0 62 105" fill="none">
    <path d="M0 0.555695C0 0.845177 1.84061 3.54242 4.16537 6.52914C6.49014 9.51678 9.68715 14.2376 11.4307 16.8393C15.9842 24.0653 26.5436 46.611 29.6436 55.572C33.0337 65.1103 32.7436 65.7848 22.5713 74.3599C18.6961 77.6361 15.5 81.1053 15.5 81.8754C15.5 82.743 19.8585 87.3673 25.1872 92.3776C31 97.6775 34.8743 102.013 34.8743 103.169C34.8743 104.904 35.6495 105 48.4367 105C58.6089 105 62 104.711 62 103.747C62 99.7002 38.2654 14.8157 36.0367 10.7694C35.6495 9.99832 29.4495 7.97471 22.2812 6.14408C15.1119 4.40994 7.65252 2.28983 5.61789 1.42322C1.64656 -0.118845 0 -0.407408 0 0.555695Z" fill="#F5F5F5"/>
</svg>